<svg width="20" height="24" viewBox="0 0 20 24" fill="none" xmlns="http://www.w3.org/2000/svg">
<circle cx="10" cy="11" r="10" fill="white"/>
<circle cx="10" cy="11" r="9.5" stroke="#16FA11" stroke-opacity="0.69"/>
<path d="M11.8224 4.45455L11.5455 14.6392H8.94602L8.66193 4.45455H11.8224ZM10.2457 19.1847C9.77699 19.1847 9.37453 19.0189 9.03835 18.6875C8.70218 18.3513 8.53646 17.9489 8.54119 17.4801C8.53646 17.0161 8.70218 16.6184 9.03835 16.2869C9.37453 15.9555 9.77699 15.7898 10.2457 15.7898C10.6955 15.7898 11.0909 15.9555 11.4318 16.2869C11.7727 16.6184 11.9455 17.0161 11.9503 17.4801C11.9455 17.7926 11.8627 18.0791 11.7017 18.3395C11.5455 18.5952 11.3395 18.8011 11.0838 18.9574C10.8281 19.1089 10.5488 19.1847 10.2457 19.1847Z" fill="#16FA11" fill-opacity="0.69"/>
</svg>
